<?xml version="1.0" standalone="no"?>
<!DOCTYPE svg PUBLIC "-//W3C//DTD SVG 20010904//EN"
 "http://www.w3.org/TR/2001/REC-SVG-20010904/DTD/svg10.dtd">
<svg version="1.0" xmlns="http://www.w3.org/2000/svg"
 width="700.000000pt" height="700.000000pt" viewBox="0 0 700.000000 700.000000"
 preserveAspectRatio="xMidYMid meet">
<metadata>
Created by potrace 1.14, written by Peter Selinger 2001-2017
</metadata>
<g transform="translate(0.000000,700.000000) scale(0.100000,-0.100000)"
fill="#000000" stroke="none">
<path d="M870 4670 l0 -580 528 -637 c290 -351 880 -1064 1311 -1585 431 -522
787 -948 791 -948 7 0 422 495 2123 2532 l507 607 0 596 0 595 -2630 0 -2630
0 0 -580z m1270 223 c0 -146 -2 -264 -4 -262 -2 2 -63 122 -135 267 l-131 262
135 0 135 0 0 -267z m350 90 c0 -97 -4 -173 -8 -167 -23 25 -259 321 -266 332
-6 9 24 12 133 12 l141 0 0 -177z m960 132 c0 -25 -3 -45 -7 -44 -5 0 -48 20
-98 44 l-90 43 98 1 97 1 0 -45z m-2260 -32 l-1 -68 -25 30 c-14 17 -39 47
-55 68 l-31 37 56 0 56 0 0 -67z m290 -170 c0 -208 -2 -235 -15 -223 -8 8 -61
71 -119 140 l-106 125 0 98 0 97 120 0 120 0 0 -237z m330 -200 c0 -240 -4
-433 -8 -428 -5 6 -66 78 -135 162 l-127 152 0 276 0 275 135 0 135 0 0 -437z
m1030 322 c0 -97 -2 -115 -16 -115 -13 0 -264 215 -264 226 0 2 63 4 140 4
l140 0 0 -115z m330 60 c0 -30 -2 -55 -4 -55 -1 0 -54 24 -117 54 l-114 55
118 0 117 1 0 -55z m446 10 c-55 -25 -101 -45 -103 -45 -1 0 -3 20 -3 45 l0
45 103 0 102 0 -99 -45z m314 -10 c-58 -30 -108 -54 -112 -54 -5 -1 -8 24 -8
54 l0 55 113 -1 112 0 -105 -54z m480 41 c-69 -68 -256 -224 -261 -218 -4 4
-9 58 -12 120 l-5 112 146 0 c127 0 144 -2 132 -14z m224 -156 c-75 -93 -138
-170 -140 -170 -2 0 -4 77 -4 170 l0 170 140 0 140 0 -136 -170z m465 163 c0
-5 -60 -127 -134 -273 l-134 -265 0 273 -1 272 135 0 c74 0 135 -3 134 -7z
m331 -283 l0 -289 -131 -151 c-72 -82 -133 -150 -135 -150 -2 0 -4 198 -4 440
l0 440 135 0 135 0 0 -290z m300 174 l0 -116 -102 -122 c-55 -66 -109 -130
-120 -141 -17 -19 -18 -12 -18 238 l0 257 120 0 120 0 0 -116z m134 39 c-37
-43 -71 -82 -76 -87 -4 -6 -8 29 -8 77 l0 87 76 0 76 0 -68 -77z m-2846 -18
l103 -48 -83 -22 c-46 -12 -96 -27 -111 -34 -16 -6 -30 -11 -33 -11 -2 0 -4
39 -4 86 0 65 3 85 13 81 6 -2 58 -26 115 -52z m280 24 c60 -25 56 -33 -25
-43 l-53 -7 0 42 c0 29 4 40 13 36 6 -3 36 -15 65 -28z m452 -9 c0 -45 0 -45
-100 -33 l-55 7 70 32 c39 18 73 33 78 34 4 0 7 -18 7 -40z m330 -44 l0 -84
-92 29 c-51 16 -101 29 -113 30 -17 0 177 107 198 108 4 1 7 -37 7 -83z
m-1422 -29 c56 -50 100 -92 98 -95 -3 -2 -55 -28 -116 -58 l-110 -53 0 155 c0
122 3 154 13 148 6 -5 58 -48 115 -97z m1770 -136 l-3 -79 -111 57 -111 56
111 101 111 101 3 -78 c2 -44 2 -114 0 -158z m-2089 41 c67 -84 119 -156 116
-161 -3 -5 -29 -22 -58 -39 -28 -16 -87 -55 -129 -85 l-78 -56 0 262 c0 220 2
259 14 247 7 -8 68 -84 135 -168z m2441 -82 l0 -250 -64 43 c-35 23 -97 62
-138 87 l-74 44 134 163 c74 90 136 163 138 163 2 0 4 -112 4 -250z m-2738
-123 c50 -98 89 -179 87 -180 -26 -17 -140 -116 -196 -171 l-73 -70 0 384 0
385 46 -85 c25 -47 86 -165 136 -263z m3068 -28 l0 -371 -72 67 c-39 36 -100
87 -135 113 -35 25 -62 51 -61 57 5 18 259 505 264 505 2 0 4 -167 4 -371z
m-1440 310 c200 -24 418 -89 616 -183 245 -116 567 -329 714 -471 36 -35 78
-74 94 -87 34 -29 41 -16 -83 -165 -79 -96 -86 -102 -130 -108 -75 -11 -187
-50 -377 -131 -232 -99 -299 -116 -439 -117 -93 -1 -117 2 -160 22 -72 32 -92
55 -140 158 -47 99 -53 105 -149 133 -33 10 -90 31 -126 46 -50 21 -80 27
-130 27 -102 -1 -140 -25 -229 -141 -54 -70 -140 -101 -192 -69 -11 6 -48 59
-82 117 -50 85 -83 127 -177 220 -126 126 -192 171 -289 196 -82 21 -151 12
-232 -28 -69 -35 -165 -125 -205 -194 -14 -24 -30 -44 -34 -44 -5 0 -18 13
-29 28 l-20 28 117 102 c351 306 671 495 1017 598 76 23 252 59 325 67 78 8
261 6 340 -4z m-2309 -470 c20 -10 63 -48 95 -85 33 -36 75 -84 95 -107 l36
-41 -66 -82 c-71 -90 -94 -96 -67 -18 26 77 22 120 -17 159 -20 20 -48 36 -71
40 -112 21 -247 -123 -233 -247 11 -92 68 -138 169 -138 64 0 57 -9 -41 -48
l-75 -30 -70 75 c-39 42 -78 88 -87 102 -96 157 -14 370 168 437 46 17 112 10
164 -17z m4185 -111 c7 -26 20 -38 64 -60 83 -40 325 -118 369 -118 21 0 40
-3 44 -6 8 -8 -155 -214 -167 -210 -6 1 -10 18 -10 36 -1 48 -35 64 -105 49
-50 -10 -111 -44 -118 -65 -2 -5 15 -38 37 -73 38 -59 42 -62 71 -56 28 6 30
5 21 -12 -6 -10 -30 -41 -54 -70 -24 -29 -60 -75 -81 -103 -40 -52 -58 -58
-50 -17 3 13 -3 33 -14 46 l-19 23 -213 -7 c-116 -4 -211 -11 -209 -16 2 -5
65 -58 142 -120 129 -103 141 -110 172 -104 19 3 34 4 34 1 0 -11 -92 -111
-103 -111 -6 0 -14 13 -17 30 -4 23 -29 50 -105 114 -138 115 -236 183 -257
177 -10 -2 -18 0 -18 5 0 5 42 58 93 119 l92 110 20 -24 c19 -23 23 -24 104
-18 l84 7 -60 42 c-42 30 -66 40 -81 36 -12 -3 -22 -2 -22 1 0 11 84 115 93
115 4 1 7 -10 7 -23 0 -28 96 -119 241 -228 99 -75 133 -86 120 -40 -28 95
-177 341 -238 391 -33 27 -34 31 -20 51 26 37 132 160 138 160 3 0 10 -15 15
-32z m-3768 -363 c40 -47 72 -87 72 -91 0 -3 -11 -3 -24 0 -27 7 -66 -20 -216
-149 -155 -134 -159 -138 -153 -168 3 -15 3 -27 -1 -27 -9 0 -156 181 -156
192 0 6 11 8 24 4 20 -5 41 7 113 66 148 120 231 198 245 229 7 16 15 29 19
29 3 0 38 -38 77 -85z m3046 -147 c-19 -31 -181 -248 -221 -294 -24 -28 -62
-64 -85 -80 -38 -27 -50 -29 -162 -35 -131 -6 -143 -10 -226 -73 -78 -60 -147
-97 -288 -155 l-122 -50 -25 37 c-64 94 -4 139 268 197 176 38 247 72 447 215
251 180 317 222 380 241 37 11 42 10 34 -3z m-2847 -88 c38 -57 207 -256 229
-268 11 -6 1 -24 -47 -81 -34 -40 -64 -70 -67 -67 -3 3 3 30 13 60 18 53 18
56 0 95 -10 23 -22 41 -27 41 -10 0 -272 -221 -300 -252 -12 -13 -16 -28 -12
-44 9 -37 -10 -29 -52 24 -21 26 -58 68 -82 94 -46 50 -49 74 -7 58 20 -8 32
-3 72 27 60 46 273 224 273 229 0 2 -18 15 -39 30 -35 23 -45 25 -95 19 -32
-4 -56 -3 -56 2 0 9 137 81 155 82 6 0 25 -22 42 -49z m2177 -146 l38 -6 -38
-40 c-53 -54 -162 -105 -252 -119 -40 -6 -80 -8 -88 -5 -8 3 -26 1 -40 -4 -56
-22 -124 38 -124 108 0 28 21 55 48 63 21 7 415 9 456 3z m899 -60 c103 -35
179 -137 180 -242 1 -158 -102 -276 -253 -289 -249 -23 -390 262 -222 448 83
92 184 121 295 83z m-2713 -223 c44 -52 80 -99 80 -104 0 -5 -11 -7 -24 -3
-15 4 -28 0 -38 -12 -18 -21 -61 -122 -55 -128 7 -7 139 25 153 37 6 5 10 19
7 29 -10 36 14 21 64 -40 49 -61 60 -89 33 -81 -80 24 -272 -8 -343 -58 -67
-46 -117 -106 -117 -141 0 -17 -4 -30 -10 -30 -5 0 -10 3 -10 8 0 4 -34 47
-75 96 -41 48 -75 92 -75 98 0 5 15 6 33 3 30 -6 41 0 103 49 38 30 77 69 87
86 28 47 77 200 77 240 0 37 7 53 21 48 5 -2 44 -45 89 -97z m2380 -252 c111
-50 166 -133 158 -239 -4 -51 -10 -66 -61 -136 -76 -106 -197 -247 -205 -239
-4 3 -7 16 -7 28 0 15 -47 60 -165 159 -149 125 -168 138 -194 132 -41 -9 -32
8 66 125 91 107 148 156 206 177 56 20 149 17 202 -7z m-1960 -318 c69 -26
121 -71 155 -133 26 -46 30 -63 30 -133 0 -125 -47 -200 -155 -249 -68 -30
-170 -28 -236 6 -172 89 -213 319 -79 453 75 74 181 95 285 56z m1525 -120
c-3 -5 -23 -7 -44 -4 -56 8 -86 -2 -131 -43 -50 -45 -52 -75 -9 -115 29 -27
33 -28 49 -14 29 26 43 70 31 93 -14 26 -14 32 0 32 15 0 145 -79 161 -97 11
-14 8 -15 -29 -9 -46 8 -84 -6 -118 -44 l-20 -22 45 -41 c72 -64 121 -97 146
-97 55 0 105 117 84 200 -6 25 -14 55 -17 68 -10 43 17 22 60 -45 74 -116 73
-107 29 -151 -22 -22 -83 -94 -137 -161 -53 -66 -101 -121 -106 -121 -5 0 -9
11 -9 24 0 17 -21 44 -72 91 -109 101 -265 215 -293 215 -14 0 -25 3 -25 8 1
4 43 54 95 112 52 58 109 128 127 156 l33 51 78 -39 c43 -21 75 -43 72 -47z
m-945 -526 l49 -50 -51 -67 c-27 -38 -54 -68 -59 -68 -12 0 -12 1 7 45 18 45
12 92 -19 148 -26 46 -59 57 -95 30 -48 -36 -51 -51 -15 -83 26 -24 39 -28 63
-24 16 4 30 3 30 -1 0 -4 -17 -26 -37 -49 -21 -23 -51 -56 -66 -75 -33 -40
-49 -33 -23 10 21 35 15 72 -18 113 -27 35 -26 36 -142 -69 -61 -54 -74 -72
-74 -96 0 -24 -3 -28 -16 -21 -23 13 -153 175 -148 184 3 5 20 8 39 8 28 0 54
16 146 91 158 130 199 171 199 201 0 13 3 27 6 31 3 3 44 -42 91 -101 47 -59
107 -129 133 -157z m538 160 c34 -22 62 -43 62 -47 0 -5 -23 -8 -51 -8 -86 0
-149 -43 -149 -100 0 -61 38 -64 128 -10 85 50 172 74 222 60 61 -17 100 -72
100 -142 0 -65 -41 -136 -129 -226 -43 -44 -80 -85 -83 -92 -3 -9 -32 6 -91
46 -47 32 -86 62 -87 67 0 12 25 8 56 -8 40 -21 80 -19 131 6 81 39 119 131
68 165 -31 20 -71 12 -123 -26 -125 -90 -231 -93 -287 -6 -49 74 -23 157 84
270 39 41 71 80 71 86 0 15 5 13 78 -35z m-275 -565 l98 -159 -98 -160 c-54
-88 -100 -160 -103 -160 -3 0 -49 72 -103 160 l-97 160 97 159 c54 88 100 159
103 159 3 0 49 -71 103 -159z"/>
<path d="M5520 4214 c0 -4 66 -112 75 -122 2 -2 25 9 50 24 l47 27 -35 18
c-50 26 -137 60 -137 53z"/>
<path d="M4820 3473 c-47 -17 -53 -81 -12 -142 30 -45 117 -115 169 -137 70
-30 143 -10 163 42 22 58 -62 163 -174 219 -47 24 -109 31 -146 18z"/>
<path d="M4470 3005 c-26 -8 -56 -25 -68 -38 l-22 -23 38 -36 c57 -55 207
-172 247 -194 l37 -19 28 33 c38 46 44 85 21 136 -32 72 -120 137 -201 149
-19 3 -55 -1 -80 -8z"/>
<path d="M2669 2682 c-87 -56 -158 -159 -159 -230 0 -43 38 -82 80 -82 70 0
184 88 229 177 63 126 -31 210 -150 135z"/>
</g>
</svg>
